<?xml version="1.0" encoding="utf-8"?>
<svg version="1.1" xmlns:xlink="http://www.w3.org/1999/xlink" width="201px" height="165px" xmlns="http://www.w3.org/2000/svg">
  <g transform="matrix(1 0 0 1 -317 -252 )">
    <path d="M 60 118.777901785714  L 60 150.267857142857  L 95 132.589285714286  L 95 103.677455357143  L 60 118.777901785714  Z M 15.8878676470588 92.5362723214286  L 53.2058823529412 108.465401785714  L 90.5238970588235 92.5362723214286  L 53.2058823529412 76.6071428571429  L 15.8878676470588 92.5362723214286  Z M 153 118.777901785714  L 153 150.267857142857  L 189 132.589285714286  L 189 103.677455357143  L 153 118.777901785714  Z M 110.476102941176 92.5362723214286  L 147.794117647059 108.465401785714  L 185.112132352941 92.5362723214286  L 147.794117647059 76.6071428571429  L 110.476102941176 92.5362723214286  Z M 106 56.9029017857143  L 106 81.4871651785714  L 141 66.2946428571429  L 141 41.8024553571429  L 106 56.9029017857143  Z M 59.7642463235294 29.1880580357143  L 100.5 46.5904017857143  L 141.235753676471 29.1880580357143  L 100.5 11.7857142857143  L 59.7642463235294 29.1880580357143  Z M 199.060202205882 87.8404017857143  C 200.353400735294 89.8046875  201 91.953125  201 94.2857142857143  L 201 132.589285714286  C 201 134.799107142857  200.414981617647 136.85546875  199.244944852941 138.758370535714  C 198.074908088235 140.661272321429  196.473805147059 142.103794642857  194.441636029412 143.0859375  L 153.059283088235 163.7109375  C 151.519761029412 164.5703125  149.764705882353 165  147.794117647059 165  C 145.823529411765 165  144.068474264706 164.5703125  142.528952205882 163.7109375  L 101.146599264706 143.0859375  C 100.900275735294 142.963169642857  100.684742647059 142.840401785714  100.5 142.717633928571  C 100.376838235294 142.840401785714  100.161305147059 142.963169642857  99.8534007352941 143.0859375  L 58.4710477941176 163.7109375  C 56.9315257352941 164.5703125  55.1764705882353 165  53.2058823529412 165  C 51.2352941176471 165  49.4802389705882 164.5703125  47.9407169117647 163.7109375  L 6.55836397058824 143.0859375  C 4.52619485294118 142.103794642857  2.92509191176471 140.661272321429  1.75505514705882 138.758370535714  C 0.585018382352941 136.85546875  0 134.799107142857  0 132.589285714286  L 0 94.2857142857143  C 0 91.953125  0.661994485294118 89.8046875  1.98598345588235 87.8404017857143  C 3.30997242647059 85.8761160714286  5.04963235294118 84.4029017857143  7.20496323529412 83.4207589285714  L 48 66.2946428571429  L 48 29.4642857142857  C 47.2941176470588 27.1316964285714  47.9561121323529 24.9832589285714  49.2801011029412 23.0189732142857  C 50.6040900735294 21.0546875  52.34375 19.5814732142857  54.4990808823529 18.5993303571429  L 95.8814338235294 0.920758928571421  C 97.2977941176471 0.306919642857165  98.8373161764706 0  100.5 0  C 102.162683823529 0  103.702205882353 0.306919642857165  105.118566176471 0.920758928571421  L 146.500919117647 18.5993303571429  C 148.65625 19.5814732142857  150.395909926471 21.0546875  151.719898897059 23.0189732142857  C 153.043887867647 24.9832589285714  153.705882352941 27.1316964285714  153 29.4642857142857  L 153 66.2946428571429  L 193.795036764706 83.4207589285714  C 196.011948529412 84.4029017857143  197.767003676471 85.8761160714286  199.060202205882 87.8404017857143  Z " fill-rule="nonzero" fill="#00bfbf" stroke="none" transform="matrix(1 0 0 1 317 252 )" />
  </g>
</svg>